<?xml version="1.0" encoding="utf-8"?>
<svg xmlns="http://www.w3.org/2000/svg" style="margin: auto; background: rgb(241, 242, 243); display: block; shape-rendering: auto;" width="280" height="250" preserveAspectRatio="xMidYMid">
<style type="text/css">
  text {
    text-anchor: middle; font-size: 80px; opacity: 0;
  }
</style>
<g style="transform-origin:140px 125px;transform:scale(1)">
<g transform="translate(140,125)">
  <g transform="translate(0,0)"><g class="path" style="transform: scale(0.91); transform-origin: 6.55999px 8.0928px; animation: 1s linear 0s infinite normal forwards running breath-0177cdf5-a8c6-4096-84e6-82641bcd4498;"><path d="M24.64 12.24L24.64 12.24L24.64 10.72L24.64 10.72Q29.60 10.48 31.36 8.16L31.36 8.16L31.36 8.16Q33.12 5.84 34.64-2.56L34.64-2.56L42.32-46.80L42.32-46.80Q25.92-45.44 17-39.72L17-39.72L17-39.72Q8.08-34 8.08-24.80L8.08-24.80L8.08-24.80Q8.08-20.64 10.96-17.76L10.96-17.76L10.96-17.76Q12.96-15.84 16.24-14.84L16.24-14.84L16.24-14.84Q19.52-13.84 21.64-13.72L21.64-13.72L21.64-13.72Q23.76-13.60 23.92-13.76L23.92-13.76L23.92-12.08L23.92-12.08Q14.48-12.08 9.92-16.56L9.92-16.56L9.92-16.56Q6.56-19.68 6.56-24.80L6.56-24.80L6.56-24.80Q6.56-36.24 18.52-42.48L18.52-42.48L18.52-42.48Q30.48-48.72 52.32-48.72L52.32-48.72L52.32-48.72Q65.92-48.72 71.64-45.04L71.64-45.04L71.64-45.04Q77.36-41.36 77.36-35L77.36-35L77.36-35Q77.36-28.64 73-24.08L73-24.08L73-24.08Q68.64-19.52 61.52-17.04L61.52-17.04L61.52-17.04Q71.92 4.56 74.88 8.92L74.88 8.92L74.88 8.92Q77.84 13.28 82 13.28L82 13.28L82 13.28Q84.48 13.28 86.44 11.72L86.44 11.72L86.44 11.72Q88.40 10.16 89.20 7.52L89.20 7.52L91.20 7.52L91.20 7.52Q88.64 15.84 78.64 15.84L78.64 15.84L78.64 15.84Q72.32 15.84 68.20 12.84L68.20 12.84L68.20 12.84Q64.08 9.84 61.28 3.76L61.28 3.76L52.64-14.96L52.64-14.96Q49.44-14.64 47.92-14.64L47.92-14.64L47.92-14.64Q47.68-13.44 47.20-10.56L47.20-10.56L47.20-10.56Q46.72-7.68 46.40-6.24L46.40-6.24L46.40-6.24Q44.80 2.40 38.36 7.32L38.36 7.32L38.36 7.32Q31.92 12.24 24.64 12.24zM75.28-34.72L75.28-34.72L75.28-34.72Q75.28-46.96 53.04-47.20L53.04-47.20L48.24-16.40L48.24-16.40Q59.60-16.72 67.44-22.12L67.44-22.12L67.44-22.12Q75.28-27.52 75.28-34.72" fill="#1d3f72" stroke="none" stroke-width="none" transform="translate(-42.32000732421875,24.532799072265625)" style="fill: rgb(29, 63, 114);"></path></g></g>
</g>
</g>
<style id="breath-0177cdf5-a8c6-4096-84e6-82641bcd4498" data-anikit="">@keyframes breath-0177cdf5-a8c6-4096-84e6-82641bcd4498
{
  0% {
    animation-timing-function: cubic-bezier(0.9647,0.2413,-0.0705,0.7911);
    transform: scale(0.9099999999999999);
  }
  51% {
    animation-timing-function: cubic-bezier(0.9226,0.2631,-0.0308,0.7628);
    transform: scale(1.02994);
  }
  100% {
    transform: scale(0.9099999999999999);
  }
}</style></svg>